{"accessors" : [{"bufferView" : 0, "byteOffset" : 0, "componentType" : 5123, "count" : 14814, "type" : "SCALAR", "max" : [14813], "min" : [0]}, {"bufferView" : 1, "byteOffset" : 0, "componentType" : 5126, "count" : 14814, "type" : "VEC3", "max" : [85.47250366210938, 186.95310974121094, 19.815942764282227], "min" : [-85.47250366210938, -2.2000000171829015E-05, -17.200756072998047], "name" : "POSITION"}, {"bufferView" : 1, "byteOffset" : 12, "componentType" : 5126, "count" : 14814, "type" : "VEC3", "max" : [0.9995066523551941, 0.999890923500061, 1.0000044107437134], "min" : [-0.9995066523551941, -1.0000044107437134, -1.0000044107437134], "name" : "NORMAL"}, {"bufferView" : 1, "byteOffset" : 24, "componentType" : 5126, "count" : 14814, "type" : "VEC2", "max" : [0.4339340031147003, -0.19074100255966187], "min" : [0.21542200446128845, -0.22479699552059174], "name" : "TEXCOORD_0"}, {"bufferView" : 1, "byteOffset" : 32, "componentType" : 5126, "count" : 14814, "type" : "VEC2", "max" : [0, -0], "min" : [0, -0], "name" : "TEXCOORD_1"}], "asset" : {"generator" : "Aspose.3D 21.8.1", "version" : "2.0"}, "buffers" : [{"uri" : "data:application/octet-stream;base64,", "byteLength" : 622196}], "bufferViews" : [{"buffer" : 0, "byteOffset" : 0, "byteLength" : 29628, "target" : 34963}, {"buffer" : 0, "byteOffset" : 29632, "byteLength" : 592560, "byteStride" : 40, "target" : 34962}], "materials" : [{"name" : "", "pbrMetallicRoughness" : {"baseColorFactor" : [0.18070000000000003, 0.010200000000000002, 0.28830000000000006, 1], "metallicFactor" : 0, "roughnessFactor" : 0}, "emissiveFactor" : [0.18070000000000003, 0.010200000000000002, 0.28830000000000006], "alphaMode" : "OPAQUE", "doubleSided" : false}], "meshes" : [{"primitives" : [{"attributes" : {"POSITION" : 1, "NORMAL" : 2, "TEXCOORD_0" : 3, "TEXCOORD_1" : 4}, "indices" : 0, "material" : 0, "mode" : 4}], "name" : "MaleDummyDancer"}], "nodes" : [{"matrix" : [1, 0, 0, 0, 0, 1, 0, 0, 0, 0, 1, 0, 0, -1.4863907000000008E-08, -2.0000000000000017E-15, 1], "mesh" : 0, "name" : "MaleDummyDancer"}], "scene" : 0, "scenes" : [{"nodes" : [0]}]}